<?xml version="1.0" encoding="iso-8859-1"?>
<!-- Generator: Adobe Illustrator 29.1.0, SVG Export Plug-In . SVG Version: 9.03 Build 55587)  -->
<svg version="1.1" xmlns="http://www.w3.org/2000/svg" xmlns:xlink="http://www.w3.org/1999/xlink" x="0px" y="0px"
	 viewBox="0 0 841.89 595.276" style="enable-background:new 0 0 841.89 595.276;" xml:space="preserve">
<g id="rebord" style="display:none;">
	
		<polyline style="display:inline;fill:none;stroke:#000000;stroke-width:12;stroke-linecap:round;stroke-linejoin:round;stroke-miterlimit:10;" points="
		389.886,155 446.361,155 406.889,90.111 362.444,175.222 471.778,175.222 471.778,195.889 420.945,195.889 389.886,195.889 
		322.444,195.889 389.886,62.043 	"/>
</g>
<g id="contour">
	<g>
		<defs>
			<path id="XMLID_00000114060968924531946070000010409022609909978496_" d="M352.645,38.06c0,0-9.293-10.157-18.585,2.593
				L204.287,300.465c0,0-4.197,6.953-0.973,12.052c3.674,5.809,9.345,5.682,9.345,5.682s1.05,0.19,2.325,0.081
				c2.172-0.186,288.719,0.046,288.719,0.046s11.238-0.623,11.526-11.86c0.288-11.238,0-42.357,0-42.357s-1.873-9.797-13.111-9.509
				c-11.238,0.288-191.831,0-191.831,0l67.786-129.952l55.323,90.477h-89.881c-0.221,0-0.423,0.096-0.644,0.082
				c-2.437-0.154-11.557,3.574-10.001,13.785c0,0,1.297,8.32,10.049,9.509h112.592c0,0,5.835-0.648,8.32-5.187
				c0,0,3.566-3.89,1.189-11.021L385.552,92.363c-0.077-0.125,0.106,0.101,0,0c-1.006-0.959-6.732-5.877-14.322-1.519
				c0,0-2.701,1.351-4.862,6.105l-86.311,165.292c0,0-2.041,5.396,0.84,9.719c0,0,2.089,4.898,8.356,5.907l202.709,0.072v16.856
				H232.273L355.454,49.838C355.454,49.838,357.723,42.383,352.645,38.06z"/>
		</defs>
		<use xlink:href="#XMLID_00000114060968924531946070000010409022609909978496_"  style="overflow:visible;"/>
		<clipPath id="XMLID_00000067925843386058945290000011030498191356090037_">
			<use xlink:href="#XMLID_00000114060968924531946070000010409022609909978496_"  style="overflow:visible;"/>
		</clipPath>
	</g>
</g>
<g id="Calque_3">
</g>
</svg>
