<?xml version="1.0" encoding="iso-8859-1"?>
<!-- Generator: Adobe Illustrator 29.1.0, SVG Export Plug-In . SVG Version: 9.03 Build 55587)  -->
<svg version="1.1" xmlns="http://www.w3.org/2000/svg" xmlns:xlink="http://www.w3.org/1999/xlink" x="0px" y="0px"
	 viewBox="0 0 841.89 595.276" style="enable-background:new 0 0 841.89 595.276;" xml:space="preserve">
<g id="rebord" style="display:none;">
	
		<polyline style="display:inline;fill:none;stroke:#000000;stroke-width:12;stroke-linecap:round;stroke-linejoin:round;stroke-miterlimit:10;" points="
		389.886,155 446.361,155 406.889,90.111 362.444,175.222 471.778,175.222 471.778,195.889 420.945,195.889 389.886,195.889 
		322.444,195.889 389.886,62.043 	"/>
</g>
<g id="contour">
	<g>
		<defs>
			<path id="XMLID_00000114060968924531946070000010409022609909978496_" d="M414.187,11.613c0,0-14.601-15.959-29.201,4.075
				l-203.9,408.219c0,0-6.594,10.925-1.528,18.935c5.772,9.127,14.683,8.928,14.683,8.928s1.649,0.298,3.653,0.127
				c3.413-0.292,453.64,0.073,453.64,0.073s17.657-0.978,18.109-18.635s0-66.552,0-66.552s-2.943-15.393-20.599-14.94
				c-17.657,0.453-301.408,0-301.408,0L454.141,147.66l86.925,142.159H399.844c-0.348,0-0.665,0.151-1.012,0.129
				c-3.829-0.242-18.158,5.616-15.713,21.659c0,0,2.037,13.073,15.789,14.94h176.906c0,0,9.168-1.019,13.073-8.149
				c0,0,5.603-6.112,1.867-17.317L465.891,96.935c-0.12-0.197,0.167,0.159,0,0c-1.58-1.507-10.577-9.234-22.503-2.387
				c0,0-4.244,2.122-7.64,9.592L300.136,363.85c0,0-3.207,8.479,1.32,15.27c0,0,3.282,7.696,13.129,9.281l318.499,0.113v26.485
				H225.057L418.601,30.118C418.601,30.118,422.167,18.404,414.187,11.613z"/>
		</defs>
		<use xlink:href="#XMLID_00000114060968924531946070000010409022609909978496_"  style="overflow:visible;fill:#FFFFFF;"/>
		<clipPath id="XMLID_00000135692519612062808710000003943282827486951836_">
			<use xlink:href="#XMLID_00000114060968924531946070000010409022609909978496_"  style="overflow:visible;"/>
		</clipPath>
	</g>
</g>
<g id="Calque_3">
	<g>
		<path style="fill:#FFFFFF;" d="M208.409,582.035h-18.116v-2.787c0.782-0.488,1.625-0.916,2.531-1.283
			c0.904-0.367,1.797-0.648,2.677-0.843l18.922-47.306h5.427l18.409,47.306c0.979,0.195,1.956,0.476,2.934,0.843
			c0.979,0.367,1.834,0.795,2.568,1.283v2.787h-22.957v-2.787c0.928-0.44,1.931-0.855,3.007-1.246s2.102-0.685,3.081-0.88
			l-4.254-11.661h-16.283l-4.327,11.661c2.249,0.292,4.377,1.003,6.382,2.126V582.035z M208.115,560.692h12.982l-4.767-14.008
			l-1.394-6.307h-0.146l-1.615,6.454L208.115,560.692z"/>
		<path style="fill:#FFFFFF;" d="M244.272,530.695h22.59v2.786c-1.613,1.028-3.472,1.737-5.575,2.128v28.236
			c0,2.396,0.269,4.4,0.807,6.015c0.537,1.613,1.321,2.922,2.347,3.923c1.027,1.003,2.261,1.723,3.704,2.164
			c1.441,0.44,3.068,0.661,4.878,0.661c1.613,0,3.092-0.231,4.436-0.697c1.344-0.464,2.519-1.21,3.522-2.237
			c1.001-1.027,1.771-2.371,2.31-4.035c0.537-1.661,0.807-3.715,0.807-6.16v-27.504c-1.127-0.245-2.288-0.588-3.484-1.028
			c-1.198-0.439-2.189-0.928-2.971-1.467v-2.786h18.19v2.786c-0.88,0.637-1.859,1.15-2.934,1.541
			c-1.076,0.391-2.128,0.709-3.154,0.953v27.577c0,6.26-1.65,11.014-4.95,14.265c-3.301,3.251-7.958,4.876-13.973,4.876
			c-6.552,0-11.614-1.467-15.181-4.4c-3.571-2.934-5.354-7.628-5.354-14.082v-28.603c-0.979-0.148-2.005-0.404-3.081-0.77
			c-1.076-0.367-2.053-0.819-2.934-1.358V530.695z"/>
		<path style="fill:#FFFFFF;" d="M314.681,577.137c1.125,0.242,2.128,0.558,3.008,0.946c0.879,0.388,1.734,0.777,2.567,1.164v2.787
			h-22.59v-2.787c1.074-0.586,2.102-1.039,3.08-1.356c0.979-0.318,1.956-0.575,2.935-0.77v-41.512
			c-2.446-0.537-4.451-1.247-6.015-2.128v-2.786h7.774c0.977,0,2.091-0.025,3.338-0.075c1.246-0.048,2.553-0.109,3.923-0.182
			c1.368-0.075,2.762-0.148,4.181-0.221c1.418-0.073,2.787-0.11,4.106-0.11c2.689,0,5.172,0.307,7.444,0.922
			c2.274,0.615,4.229,1.535,5.867,2.763c1.638,1.23,2.91,2.765,3.814,4.608c0.904,1.843,1.358,3.992,1.358,6.448
			c0,3.539-0.857,6.439-2.568,8.698c-1.712,2.261-4.059,3.956-7.04,5.085c1.955,3.059,4.033,6.181,6.234,9.362
			c2.199,3.181,4.521,6.254,6.967,9.217l3.52,2.331v2.493h-12.248l-3.153-2.404c-2.25-2.671-4.244-5.769-5.978-9.29
			c-1.737-3.522-3.265-6.982-4.584-10.383h-5.942V577.137z M318.37,534.875c-1.525,0-2.755,0.148-3.689,0.44v20.464h4.351
			c2.508,0,4.647-0.892,6.416-2.677c1.768-1.785,2.655-4.438,2.655-7.958c0-1.809-0.246-3.362-0.737-4.659
			c-0.492-1.294-1.182-2.358-2.065-3.19c-0.885-0.831-1.917-1.441-3.098-1.834C321.023,535.072,319.744,534.875,318.37,534.875z"/>
		<path style="fill:#FFFFFF;" d="M387.363,530.695c-0.098,2.199-0.269,4.474-0.513,6.821s-0.563,4.547-0.953,6.6h-3.007
			l-3.374-8.655H365.8v17.97h8.949l3.228-5.648h2.346c0.245,2.396,0.367,5.061,0.367,7.995s-0.122,5.672-0.367,8.214h-2.346
			l-3.228-5.794H365.8v19.068h14.302l3.887-9.314h3.007c0.195,0.93,0.391,1.98,0.586,3.153c0.195,1.174,0.355,2.385,0.477,3.63
			c0.121,1.247,0.219,2.507,0.294,3.778c0.073,1.271,0.109,2.446,0.109,3.52h-39.678v-2.787c0.831-0.44,1.761-0.855,2.787-1.246
			s2.101-0.685,3.228-0.88v-41.512c-0.979-0.195-2.017-0.477-3.117-0.843c-1.101-0.367-2.067-0.795-2.898-1.285v-2.786H387.363z"/>
		<path style="fill:#FFFFFF;" d="M393.084,530.695h24.057v2.786c-1.027,0.539-2.164,0.991-3.411,1.358
			c-1.246,0.366-2.456,0.622-3.63,0.77v41.658h14.155l4.915-13.128h3.008c0.194,1.125,0.376,2.446,0.549,3.96
			c0.17,1.516,0.304,3.105,0.403,4.768c0.098,1.662,0.17,3.301,0.221,4.914c0.048,1.615,0.048,3.032,0,4.254h-40.266v-2.787
			c1.124-0.586,2.188-1.05,3.19-1.394c1.001-0.342,1.944-0.586,2.825-0.733v-41.512c-2.396-0.391-4.402-1.1-6.015-2.128V530.695z"/>
		<path style="fill:#FFFFFF;" d="M459.457,582.035h-22.884v-2.787c1.955-1.074,3.936-1.785,5.942-2.126v-41.512
			c-0.979-0.148-2.005-0.415-3.08-0.807c-1.077-0.391-2.029-0.831-2.862-1.321v-2.786h22.884v2.786
			c-0.88,0.539-1.847,0.991-2.898,1.358c-1.05,0.366-2.065,0.622-3.044,0.77v41.512c0.979,0.195,1.994,0.466,3.044,0.806
			c1.051,0.343,2.017,0.783,2.898,1.321V582.035z"/>
		<path style="fill:#FFFFFF;" d="M501.703,530.695c-0.098,2.199-0.269,4.474-0.513,6.821s-0.561,4.547-0.952,6.6h-3.008
			l-3.372-8.655h-13.716v17.97h8.947l3.229-5.648h2.346c0.245,2.396,0.367,5.061,0.367,7.995s-0.122,5.672-0.367,8.214h-2.346
			l-3.229-5.794h-8.947v19.068h14.301l3.889-9.314h3.008c0.194,0.93,0.391,1.98,0.585,3.153c0.197,1.174,0.355,2.385,0.477,3.63
			c0.122,1.247,0.221,2.507,0.292,3.778c0.075,1.271,0.11,2.446,0.11,3.52h-39.677v-2.787c0.83-0.44,1.758-0.855,2.784-1.246
			s2.104-0.685,3.229-0.88v-41.512c-0.979-0.195-2.017-0.477-3.119-0.843c-1.098-0.367-2.065-0.795-2.895-1.285v-2.786H501.703z"/>
		<path style="fill:#FFFFFF;" d="M527.225,530.695h24.054v2.786c-1.027,0.539-2.164,0.991-3.408,1.358
			c-1.247,0.366-2.459,0.622-3.632,0.77v41.658h14.155l4.915-13.128h3.008c0.194,1.125,0.376,2.446,0.549,3.96
			c0.17,1.516,0.304,3.105,0.403,4.768c0.099,1.662,0.17,3.301,0.221,4.914c0.048,1.615,0.048,3.032,0,4.254h-40.265v-2.787
			c1.122-0.586,2.188-1.05,3.19-1.394c1-0.342,1.943-0.586,2.823-0.733v-41.512c-2.396-0.391-4.402-1.1-6.013-2.128V530.695z"/>
		<path style="fill:#FFFFFF;" d="M586.632,582.035h-18.115v-2.787c0.782-0.488,1.626-0.916,2.531-1.283
			c0.904-0.367,1.797-0.648,2.677-0.843l18.924-47.306h5.426l18.41,47.306c0.976,0.195,1.955,0.476,2.934,0.843
			c0.976,0.367,1.832,0.795,2.567,1.283v2.787h-22.956v-2.787c0.928-0.44,1.931-0.855,3.005-1.246
			c1.074-0.391,2.101-0.685,3.08-0.88l-4.253-11.661h-16.283l-4.327,11.661c2.25,0.292,4.375,1.003,6.38,2.126V582.035z
			 M586.339,560.692h12.982l-4.769-14.008l-1.391-6.307h-0.149l-1.612,6.454L586.339,560.692z"/>
		<path style="fill:#FFFFFF;" d="M621.101,556.365c0-3.814,0.54-7.346,1.615-10.599c1.074-3.25,2.665-6.061,4.769-8.434
			c2.101-2.371,4.691-4.217,7.774-5.537c3.08-1.321,6.625-1.98,10.633-1.98c4.008,0,7.553,0.66,10.636,1.98
			c3.08,1.321,5.658,3.166,7.735,5.537c2.08,2.373,3.656,5.184,4.733,8.434c1.074,3.253,1.612,6.785,1.612,10.599
			s-0.537,7.346-1.612,10.597c-1.077,3.253-2.653,6.064-4.733,8.435c-2.077,2.373-4.656,4.217-7.735,5.537
			c-3.083,1.319-6.628,1.98-10.636,1.98c-4.008,0-7.553-0.661-10.633-1.98c-3.083-1.321-5.673-3.165-7.774-5.537
			c-2.104-2.371-3.695-5.182-4.769-8.435C621.641,563.711,621.101,560.179,621.101,556.365z M633.569,556.365
			c0,3.129,0.245,6.027,0.734,8.69c0.489,2.667,1.259,4.964,2.31,6.895c1.05,1.931,2.396,3.447,4.035,4.547
			c1.638,1.1,3.605,1.65,5.903,1.65c2.104,0,3.889-0.551,5.354-1.65c1.468-1.1,2.665-2.616,3.596-4.547
			c0.928-1.931,1.6-4.229,2.014-6.895c0.415-2.664,0.624-5.561,0.624-8.69s-0.233-6.025-0.695-8.692
			c-0.466-2.664-1.2-4.961-2.199-6.894c-1.003-1.931-2.325-3.447-3.963-4.547c-1.638-1.101-3.629-1.65-5.975-1.65
			c-2.25,0-4.133,0.549-5.649,1.65c-1.516,1.1-2.725,2.616-3.629,4.547c-0.907,1.932-1.54,4.23-1.907,6.894
			C633.754,550.339,633.569,553.236,633.569,556.365z"/>
	</g>
</g>
</svg>
