<?xml version="1.0" encoding="iso-8859-1"?>
<!-- Generator: Adobe Illustrator 29.1.0, SVG Export Plug-In . SVG Version: 9.03 Build 55587)  -->
<svg version="1.1" xmlns="http://www.w3.org/2000/svg" xmlns:xlink="http://www.w3.org/1999/xlink" x="0px" y="0px"
	 viewBox="0 0 841.89 595.276" style="enable-background:new 0 0 841.89 595.276;" xml:space="preserve">
<g id="rebord" style="display:none;">
	
		<polyline style="display:inline;fill:none;stroke:#000000;stroke-width:12;stroke-linecap:round;stroke-linejoin:round;stroke-miterlimit:10;" points="
		389.886,155 446.361,155 406.889,90.111 362.444,175.222 471.778,175.222 471.778,195.889 420.945,195.889 389.886,195.889 
		322.444,195.889 389.886,62.043 	"/>
</g>
<g id="contour">
	<g>
		<defs>
			<path id="XMLID_00000114060968924531946070000010409022609909978496_" d="M414.187,11.613c0,0-14.601-15.959-29.201,4.075
				l-203.9,408.219c0,0-6.594,10.925-1.528,18.935c5.772,9.127,14.683,8.928,14.683,8.928s1.649,0.298,3.653,0.127
				c3.413-0.292,453.64,0.073,453.64,0.073s17.657-0.978,18.109-18.635s0-66.552,0-66.552s-2.943-15.393-20.599-14.94
				c-17.657,0.453-301.408,0-301.408,0L454.141,147.66l86.925,142.159H399.844c-0.348,0-0.665,0.151-1.012,0.129
				c-3.829-0.242-18.158,5.616-15.713,21.659c0,0,2.037,13.073,15.789,14.94h176.906c0,0,9.168-1.019,13.073-8.149
				c0,0,5.603-6.112,1.867-17.317L465.891,96.935c-0.12-0.197,0.167,0.159,0,0c-1.58-1.507-10.577-9.234-22.503-2.387
				c0,0-4.244,2.122-7.64,9.592L300.136,363.85c0,0-3.207,8.479,1.32,15.27c0,0,3.282,7.696,13.129,9.281l318.499,0.113v26.485
				H225.057L418.601,30.118C418.601,30.118,422.167,18.404,414.187,11.613z"/>
		</defs>
		<use xlink:href="#XMLID_00000114060968924531946070000010409022609909978496_"  style="overflow:visible;fill:#FFFFFF;"/>
		<clipPath id="XMLID_00000002355740736797507770000001234587826067696512_">
			<use xlink:href="#XMLID_00000114060968924531946070000010409022609909978496_"  style="overflow:visible;"/>
		</clipPath>
	</g>
</g>
<g id="Calque_3">
</g>
</svg>
